<svg width="26" height="26" viewBox="0 0 26 26" fill="none" xmlns="http://www.w3.org/2000/svg">
<path fill-rule="evenodd" clip-rule="evenodd" d="M17.8802 10.5448V5.57022C17.8802 5.35385 17.6189 5.15308 17.177 5.14147C16.9237 5.13481 16.7422 5.18851 16.6345 5.28809C17.3186 5.94277 17.6511 6.94888 17.4221 7.95844L12.1605 6.72241C12.4712 5.35299 13.7079 4.45017 15.0253 4.5608C15.4156 3.77788 16.2655 3.34079 17.2207 3.36589C18.4984 3.39947 19.5988 4.24497 19.5988 5.57022V10.5448H22V12H19.984V15.7864C19.984 17.4843 18.8414 19.2137 16.9862 19.2137H16.8382C16.8384 19.6236 16.9808 19.7264 18 19.7264V21.3648C16.1612 21.3648 15.1889 20.6597 15.1885 19.2137H10.8115C10.8111 20.6597 9.83881 21.3648 8 21.3648V19.7264C9.01923 19.7264 9.1616 19.6236 9.16179 19.2137H8.85711C7.17329 19.2137 5.98901 17.9831 5.98901 15.7864V12H4V10.5448H17.8802ZM7.73071 15.7864V12H18.2423V15.7864C18.2423 16.6037 17.7071 17.4137 16.9862 17.4137H8.85711C8.13734 17.4137 7.73071 16.9912 7.73071 15.7864Z" fill="#fff"/>
</svg>
