<?xml version="1.0" encoding="UTF-8"?>
<svg width="115px" height="25px" viewBox="0 0 115 25" version="1.1" xmlns="http://www.w3.org/2000/svg" xmlns:xlink="http://www.w3.org/1999/xlink">
    <!-- Generator: sketchtool 50.2 (55047) - http://www.bohemiancoding.com/sketch -->
    <title>B86EA0A4-6355-4389-8EAE-7CD1B2B40894</title>
    <desc>Created with sketchtool.</desc>
    <defs></defs>
    <g id="Booking-Valuation-v2" stroke="none" stroke-width="1" fill="none" fill-rule="evenodd">
        <g id="web---suburb---latest" transform="translate(-18.000000, -15.000000)">
            <g id="logo/leadhome/small/white" transform="translate(18.000000, 15.000000)">
                <g>
                    <path d="M43.9199988,20.9051994 C43.4867967,20.9051994 43.1220003,20.8368001 42.8255989,20.6999995 C42.5291974,20.5631988 42.2926498,20.3722507 42.1159489,20.1271495 C41.939248,19.8820482 41.8109993,19.5856512 41.7311989,19.2379495 C41.6513985,18.8902478 41.6114989,18.4998017 41.6114989,18.0665995 L41.6114989,8.71289977 L44.1251988,8.71289977 L44.1251988,18.1691995 C44.1251988,18.4314008 44.1736483,18.613799 44.2705488,18.7163995 C44.3674493,18.819 44.4671983,18.8702995 44.5697988,18.8702995 L44.7151488,18.8702995 C44.755049,18.8702995 44.8091985,18.8588996 44.8775988,18.8360995 L45.1853988,20.6999995 C45.0485981,20.7569997 44.8747499,20.8054492 44.6638488,20.8453494 C44.4529478,20.8852496 44.2050003,20.9051994 43.9199988,20.9051994 Z M50.2982987,20.9051994 C49.6940957,20.9051994 49.1298013,20.8054504 48.6053987,20.6059495 C48.0809961,20.4064485 47.6250007,20.1157514 47.2373987,19.7338495 C46.8497968,19.3519476 46.5476998,18.8874022 46.3310988,18.3401995 C46.1144977,17.7929968 46.0061988,17.1660031 46.0061988,16.4591996 C46.0061988,15.7751962 46.1201976,15.1567524 46.3481988,14.6038496 C46.5761999,14.0509469 46.8754469,13.5835515 47.2459487,13.2016497 C47.6164506,12.8197478 48.0410963,12.5262007 48.5198987,12.3209997 C48.9987011,12.1157987 49.4945961,12.0131997 50.0075987,12.0131997 C50.6118017,12.0131997 51.1390464,12.1157987 51.5893486,12.3209997 C52.0396509,12.5262007 52.4158471,12.8111978 52.7179486,13.1759997 C53.0200501,13.5408015 53.2451978,13.9711472 53.3933986,14.4670496 C53.5415993,14.9629521 53.6156986,15.5015967 53.6156986,16.0829996 C53.6156986,16.3110007 53.6042987,16.5275985 53.5814986,16.7327996 C53.5586985,16.9380006 53.5358987,17.091899 53.5130986,17.1944995 L48.4343987,17.1944995 C48.5483993,17.8101026 48.8020467,18.2632481 49.1953487,18.5539495 C49.5886507,18.844651 50.0702958,18.9899995 50.6402987,18.9899995 C51.2445017,18.9899995 51.8543955,18.8019014 52.4699986,18.4256995 L53.3078986,19.9475995 C52.8746964,20.2440009 52.3930513,20.4776986 51.8629486,20.6486995 C51.332846,20.8197003 50.8113012,20.9051994 50.2982987,20.9051994 Z M48.4172987,15.5357996 L51.4781986,15.5357996 C51.4781986,15.0569972 51.3698997,14.6694011 51.1532986,14.3729996 C50.9366976,14.0765981 50.5719012,13.9283996 50.0588987,13.9283996 C49.6598967,13.9283996 49.3093502,14.0594983 49.0072487,14.3216996 C48.7051472,14.5839009 48.5084992,14.9885969 48.4172987,15.5357996 Z M57.3092985,20.9051994 C56.9216966,20.9051994 56.5711501,20.8396501 56.2576485,20.7085495 C55.944147,20.5774488 55.6790996,20.3950506 55.4624985,20.1613495 C55.2458975,19.9276483 55.0777491,19.656901 54.9580485,19.3490995 C54.8383479,19.041298 54.7784985,18.7050013 54.7784985,18.3401995 C54.7784985,17.4509951 55.1546948,16.7556021 55.9070985,16.2539996 C56.6595023,15.7523971 57.8735901,15.4161004 59.5493984,15.2450996 C59.5265983,14.8688977 59.4154494,14.5696507 59.2159484,14.3473496 C59.0164474,14.1250485 58.6830008,14.0138996 58.2155985,14.0138996 C57.8507966,14.0138996 57.4888503,14.0822989 57.1297485,14.2190996 C56.7706467,14.3559003 56.3859006,14.5439984 55.9754985,14.7833996 L55.0691985,13.1246997 C55.6164013,12.794098 56.1892455,12.5262007 56.7877485,12.3209997 C57.3862515,12.1157987 58.0217951,12.0131997 58.6943984,12.0131997 C59.7888039,12.0131997 60.6238455,12.3238466 61.1995484,12.9451497 C61.7752512,13.5664527 62.0630984,14.5325931 62.0630984,15.8435996 L62.0630984,20.6999995 L60.0110984,20.6999995 L59.8400984,19.8278995 L59.7716984,19.8278995 C59.4068966,20.1471011 59.0250004,20.4064485 58.6259984,20.6059495 C58.2269965,20.8054504 57.7881009,20.9051994 57.3092985,20.9051994 Z M58.1642985,18.9557995 C58.4492999,18.9557995 58.6943974,18.8931001 58.8995984,18.7676995 C59.1047995,18.6422989 59.3213973,18.4656007 59.5493984,18.2375995 L59.5493984,16.7498996 C58.660194,16.8753002 58.0446002,17.0576984 57.7025985,17.2970995 C57.3605968,17.5365007 57.1895985,17.8214979 57.1895985,18.1520995 C57.1895985,18.4257009 57.2779476,18.6280489 57.4546485,18.7591495 C57.6313494,18.8902502 57.867897,18.9557995 58.1642985,18.9557995 Z M67.2101982,20.9051994 C66.6857956,20.9051994 66.2098504,20.8026005 65.7823483,20.5973995 C65.3548461,20.3921984 64.9900498,20.0986514 64.6879483,19.7167495 C64.3858468,19.3348476 64.1521491,18.8703022 63.9868483,18.3230995 C63.8215475,17.7758968 63.7388983,17.154603 63.7388983,16.4591996 C63.7388983,15.7637961 63.8386473,15.1425023 64.0381483,14.5952996 C64.2376493,14.0480969 64.4998467,13.5835515 64.8247483,13.2016497 C65.1496499,12.8197478 65.5258461,12.5262007 65.9533483,12.3209997 C66.3808504,12.1157987 66.816896,12.0131997 67.2614982,12.0131997 C67.7403006,12.0131997 68.1335967,12.0929989 68.4413982,12.2525997 C68.7491997,12.4122005 69.0512967,12.6287983 69.3476982,12.9023997 L69.2450982,11.6027997 L69.2450982,8.71289977 L71.7587981,8.71289977 L71.7587981,20.6999995 L69.7067982,20.6999995 L69.5357982,19.8620995 L69.4673982,19.8620995 C69.1709967,20.1585009 68.8233002,20.4064485 68.4242982,20.6059495 C68.0252962,20.8054504 67.6206003,20.9051994 67.2101982,20.9051994 Z M67.8599982,18.8531995 C68.1335996,18.8531995 68.3815471,18.7962001 68.6038482,18.6821995 C68.8261493,18.5681989 69.0398971,18.3687009 69.2450982,18.0836995 L69.2450982,14.6123996 C69.017097,14.4071986 68.7833994,14.2647 68.5439982,14.1848996 C68.304597,14.1050992 68.0708993,14.0651996 67.8428982,14.0651996 C67.4438962,14.0651996 67.0904998,14.2561477 66.7826982,14.6380496 C66.4748967,15.0199515 66.3209982,15.6155955 66.3209982,16.4249996 C66.3209982,17.2686038 66.4549469,17.8841976 66.7228482,18.2717995 C66.9907496,18.6594014 67.3697958,18.8531995 67.8599982,18.8531995 Z M73.981798,20.6999995 L73.981798,8.71289977 L76.495498,8.71289977 L76.495498,11.6540997 L76.375798,13.1759997 C76.6949996,12.8909982 77.0654958,12.6259509 77.4872979,12.3808497 C77.9091,12.1357485 78.410695,12.0131997 78.9920979,12.0131997 C79.9155025,12.0131997 80.5852458,12.3152967 81.0013479,12.9194997 C81.4174499,13.5237027 81.6254978,14.3615943 81.6254978,15.4331996 L81.6254978,20.6999995 L79.1117979,20.6999995 L79.1117979,15.7580996 C79.1117979,15.1424965 79.0291487,14.7207008 78.8638479,14.4926996 C78.6985471,14.2646985 78.4334997,14.1506996 78.0686979,14.1506996 C77.7494963,14.1506996 77.4758991,14.2219489 77.247898,14.3644496 C77.0198968,14.5069503 76.7690993,14.7092983 76.495498,14.9714996 L76.495498,20.6999995 L73.981798,20.6999995 Z M87.3881977,20.9051994 C86.852395,20.9051994 86.3337002,20.8054504 85.8320977,20.6059495 C85.3304952,20.4064485 84.8887497,20.1186013 84.5068478,19.7423995 C84.1249459,19.3661976 83.8199989,18.9016523 83.5919978,18.3487495 C83.3639967,17.7958468 83.2499978,17.1660031 83.2499978,16.4591996 C83.2499978,15.752396 83.3639967,15.1225524 83.5919978,14.5696496 C83.8199989,14.0167469 84.1249459,13.5522015 84.5068478,13.1759997 C84.8887497,12.7997978 85.3304952,12.5119507 85.8320977,12.3124497 C86.3337002,12.1129487 86.852395,12.0131997 87.3881977,12.0131997 C87.9240003,12.0131997 88.4398452,12.1129487 88.9357476,12.3124497 C89.4316501,12.5119507 89.8705457,12.7997978 90.2524476,13.1759997 C90.6343495,13.5522015 90.9392965,14.0167469 91.1672976,14.5696496 C91.3952987,15.1225524 91.5092976,15.752396 91.5092976,16.4591996 C91.5092976,17.1660031 91.3952987,17.7958468 91.1672976,18.3487495 C90.9392965,18.9016523 90.6343495,19.3661976 90.2524476,19.7423995 C89.8705457,20.1186013 89.4316501,20.4064485 88.9357476,20.6059495 C88.4398452,20.8054504 87.9240003,20.9051994 87.3881977,20.9051994 Z M87.3881977,18.8702995 C87.9012002,18.8702995 88.2887964,18.6537017 88.5509977,18.2204995 C88.813199,17.7872974 88.9442976,17.2002032 88.9442976,16.4591996 C88.9442976,15.7181959 88.813199,15.1311018 88.5509977,14.6978996 C88.2887964,14.2646975 87.9012002,14.0480996 87.3881977,14.0480996 C86.8637951,14.0480996 86.473349,14.2646975 86.2168477,14.6978996 C85.9603464,15.1311018 85.8320977,15.7181959 85.8320977,16.4591996 C85.8320977,17.2002032 85.9603464,17.7872974 86.2168477,18.2204995 C86.473349,18.6537017 86.8637951,18.8702995 87.3881977,18.8702995 Z M93.2363975,20.6999995 L93.2363975,12.2183997 L95.2883975,12.2183997 L95.4593975,13.3127996 L95.5277975,13.3127996 C95.8811992,12.9593979 96.2573955,12.6544509 96.6563974,12.3979497 C97.0553994,12.1414484 97.5341946,12.0131997 98.0927974,12.0131997 C98.6970004,12.0131997 99.1843455,12.1357485 99.5548474,12.3808497 C99.9253492,12.6259509 100.218896,12.9764974 100.435497,13.4324996 C100.811699,13.0448977 101.207845,12.7114511 101.623947,12.4321497 C102.040049,12.1528483 102.533094,12.0131997 103.103097,12.0131997 C104.015102,12.0131997 104.684845,12.3181466 105.112347,12.9280497 C105.539849,13.5379527 105.753597,14.3729943 105.753597,15.4331996 L105.753597,20.6999995 L103.239897,20.6999995 L103.239897,15.7580996 C103.239897,15.1424965 103.157248,14.7207008 102.991947,14.4926996 C102.826646,14.2646985 102.561599,14.1506996 102.196797,14.1506996 C101.774995,14.1506996 101.2905,14.4242969 100.743297,14.9714996 L100.743297,20.6999995 L98.2295974,20.6999995 L98.2295974,15.7580996 C98.2295974,15.1424965 98.1469482,14.7207008 97.9816474,14.4926996 C97.8163466,14.2646985 97.5512992,14.1506996 97.1864974,14.1506996 C96.7532953,14.1506996 96.2745001,14.4242969 95.7500975,14.9714996 L95.7500975,20.6999995 L93.2363975,20.6999995 Z M111.687297,20.9051994 C111.083094,20.9051994 110.5188,20.8054504 109.994397,20.6059495 C109.469994,20.4064485 109.013999,20.1157514 108.626397,19.7338495 C108.238795,19.3519476 107.936698,18.8874022 107.720097,18.3401995 C107.503496,17.7929968 107.395197,17.1660031 107.395197,16.4591996 C107.395197,15.7751962 107.509196,15.1567524 107.737197,14.6038496 C107.965198,14.0509469 108.264445,13.5835515 108.634947,13.2016497 C109.005449,12.8197478 109.430095,12.5262007 109.908897,12.3209997 C110.387699,12.1157987 110.883594,12.0131997 111.396597,12.0131997 C112.0008,12.0131997 112.528045,12.1157987 112.978347,12.3209997 C113.428649,12.5262007 113.804845,12.8111978 114.106947,13.1759997 C114.409048,13.5408015 114.634196,13.9711472 114.782397,14.4670496 C114.930598,14.9629521 115.004697,15.5015967 115.004697,16.0829996 C115.004697,16.3110007 114.993297,16.5275985 114.970497,16.7327996 C114.947697,16.9380006 114.924897,17.091899 114.902097,17.1944995 L109.823397,17.1944995 C109.937398,17.8101026 110.191045,18.2632481 110.584347,18.5539495 C110.977649,18.844651 111.459294,18.9899995 112.029297,18.9899995 C112.6335,18.9899995 113.243394,18.8019014 113.858997,18.4256995 L114.696897,19.9475995 C114.263695,20.2440009 113.78205,20.4776986 113.251947,20.6486995 C112.721844,20.8197003 112.2003,20.9051994 111.687297,20.9051994 Z M109.806297,15.5357996 L112.867197,15.5357996 C112.867197,15.0569972 112.758898,14.6694011 112.542297,14.3729996 C112.325696,14.0765981 111.9609,13.9283996 111.447897,13.9283996 C111.048895,13.9283996 110.698349,14.0594983 110.396247,14.3216996 C110.094146,14.5839009 109.897498,14.9885969 109.806297,15.5357996 Z" id="leadhome-copy" fill="#FFFFFF"></path>
                    <path d="M15.7114121,0 L31.4236117,8.91049334 L3.54296241,24.7140171 C1.96796245,25.6064978 0,24.4900265 0,22.7035177 L0,8.91049334 L15.7114121,0 Z" id="Fill-1" fill="#FF6A70"></path>
                    <path d="M15.2999996,17.9019822 L27.468843,24.802363 C29.043843,25.6956174 31.0121992,24.5787592 31.0121992,22.7922504 L31.0121992,8.99999976 L15.2999996,17.9019822 Z" id="Fill-4" fill="#E13845"></path>
                </g>
            </g>
        </g>
    </g>
</svg>